/* XPM */
static char *ebb0fa820591482a9d57379efc6ab74bLytzq7MJv7v3uc6k[] = {
/* columns rows colors chars-per-pixel */
"50 50 237 2 ",
"   c black",
".  c #D40000",
"X  c #D10000",
"o  c #CE0000",
"O  c #CB0000",
"+  c #C80000",
"@  c #C50000",
"#  c #C20000",
"$  c #BF0000",
"%  c #BC0000",
"&  c #B90000",
"*  c #B60000",
"=  c #B20000",
"-  c #AF0000",
";  c #AC0000",
":  c #A80000",
">  c #A50000",
",  c #A10000",
"<  c #9E0000",
"1  c #9A0000",
"2  c #970000",
"3  c #930000",
"4  c #900000",
"5  c #8C0000",
"6  c #890000",
"7  c #850000",
"8  c #B50000",
"9  c #810000",
"0  c #AB0000",
"q  c #7E0000",
"w  c #7A0000",
"e  c #880000",
"r  c #760000",
"t  c #A40000",
"y  c #960000",
"u  c #730000",
"i  c #7D0000",
"p  c #6F0000",
"a  c #8F0000",
"s  c #720000",
"d  c #6B0000",
"f  c #B80000",
"g  c #9D0000",
"h  c #680000",
"j  c #840000",
"k  c #640000",
"l  c #AE0000",
"z  c #790000",
"x  c #610000",
"c  c #600000",
"v  c #5D0000",
"b  c #131300",
"n  c #4D4D00",
"m  c #6E6E00",
"M  c #8C8C00",
"N  c #DA8900",
"B  c #CE6B00",
"V  c #C04700",
"C  c #A90C00",
"Z  c #8B0000",
"A  c #5A0000",
"S  c #484800",
"D  c #BEBE00",
"F  c #FCFC00",
"G  c yellow",
"H  c #FEFB00",
"J  c #E3B500",
"K  c #B13A00",
"L  c #560000",
"P  c #292900",
"I  c #C2C200",
"U  c #DFB400",
"Y  c #9A1B00",
"T  c #670000",
"R  c #590000",
"E  c #530000",
"W  c #EDED00",
"Q  c #F3E400",
"!  c #9F3200",
"~  c #4F0000",
"^  c #535300",
"/  c #F9F900",
"(  c #FAF500",
")  c #9D3A00",
"_  c #520000",
"`  c #4C0000",
"'  c #232300",
"]  c #F1F100",
"[  c #F4EA00",
"{  c #851700",
"}  c #6E0000",
"|  c #480000",
" . c #C5C500",
".. c #D1AA00",
"X. c #450000",
"o. c #8B3300",
"O. c #4B0000",
"+. c #420000",
"@. c #BDBD00",
"#. c #B3B300",
"$. c #9B9B00",
"%. c #C69D00",
"&. c #410000",
"*. c #3E0000",
"=. c #0C0C00",
"-. c #FAFA00",
";. c #A5A500",
":. c #787800",
">. c #FAF700",
",. c #680800",
"<. c #5C0000",
"1. c #3B0000",
"2. c #4B4B00",
"3. c #D8D800",
"4. c #7B7B00",
"5. c #7F3200",
"6. c #380000",
"7. c #D7D700",
"8. c #915200",
"9. c #350000",
"0. c #919100",
"q. c #976100",
"w. c #550000",
"e. c #320000",
"r. c #D30000",
"t. c #D00000",
"y. c #CD0000",
"u. c #CA0000",
"i. c #C70000",
"p. c #C40000",
"a. c #C10000",
"s. c #BE0000",
"d. c #BB0000",
"f. c #B40000",
"g. c #B10000",
"h. c #DC8F00",
"j. c #5F5F00",
"k. c #B70000",
"l. c #D27700",
"z. c #4F4F00",
"x. c #AD0000",
"c. c #AA0000",
"v. c #BF4500",
"b. c #FDFD00",
"n. c #7C7C00",
"m. c #373700",
"M. c #E4E400",
"N. c #2E2E00",
"B. c #A70000",
"V. c #A60800",
"C. c #FCF700",
"Z. c #F2F200",
"A. c #050500",
"S. c #A30000",
"D. c #A00000",
"F. c #E3B600",
"G. c #929200",
"H. c #9C0000",
"J. c #B23E00",
"K. c #2A2A00",
"L. c #990000",
"P. c #950000",
"I. c #E1B700",
"U. c #979700",
"Y. c #920000",
"T. c #981700",
"R. c #F5EA00",
"E. c #E0E000",
"W. c #0F0F00",
"Q. c #9F0000",
"!. c #910000",
"~. c #8E0000",
"^. c #8A0000",
"/. c #A13900",
"(. c #F0F000",
"). c #282800",
"_. c #870000",
"`. c #830000",
"'. c #972E00",
"]. c #F2E500",
"[. c #212100",
"{. c #B00000",
"}. c #800000",
"|. c #7C0000",
" X c #831500",
".X c #CFA600",
"XX c #949400",
"oX c #0E0E00",
"OX c #A60000",
"+X c #980000",
"@X c #780000",
"#X c #750000",
"$X c #710000",
"%X c #883000",
"&X c #C69E00",
"*X c #FDFB00",
"=X c #272700",
"-X c #7F0000",
";X c #6D0000",
":X c #6A0000",
">X c #660000",
",X c #6A0C00",
"<X c #7F3300",
"1X c #8A4900",
"2X c #955E00",
"3X c #5C5C00",
"4X c #474700",
"5X c #303000",
"6X c #080800",
"7X c #740000",
"8X c #630000",
"9X c #5F0000",
"0X c #580000",
"qX c #5B0000",
"wX c #510000",
"eX c #860000",
"rX c #4E0000",
"tX c #7B0000",
"yX c #4A0000",
"uX c #620000",
"iX c #540000",
"pX c #470000",
"aX c #8D0000",
"sX c #440000",
"dX c #820000",
"fX c #4D0000",
"gX c #400000",
"hX c #690000",
"jX c #3D0000",
"kX c #430000",
"lX c #3A0000",
"zX c #370000",
"xX c #700000",
"cX c #340000",
"vX c #650000",
"bX c #570000",
"nX c #310000",
/* pixels */
"                                                  . X o O + @ # $ % & * = - ; : > , < 1 2 3 4 5 6 7 ",
"                                                  X o O + @ # $ % & 8 = - ; : > , < 1 2 3 4 5 6 7 9 ",
"                                                  o O + @ # $ % & 8 = - 0 : > , < 1 2 3 4 5 6 7 9 q ",
"                                                  O + @ # $ % & 8 = - 0 : > , < 1 2 3 4 5 6 7 9 q w ",
"                                                  + @ # $ % & 8 = - 0 : > , < 1 2 3 4 5 e 7 9 q w r ",
"                                                  @ # $ % & 8 = - 0 : t , < 1 y 3 4 5 e 7 9 q w r u ",
"                                                  # $ % & 8 = - 0 : t , < 1 y 3 4 5 e 7 9 i w r u p ",
"                                                  $ % & 8 = - 0 : t , < 1 y 3 a 5 e 7 9 i w r s p d ",
"                                                  % f 8 = - 0 : t , g 1 y 3 a 5 e 7 9 i w r s p d h ",
"                                                  f 8 = - 0 : t , g 1 y 3 a 5 e j 9 i w r s p d h k ",
"                                                  8 = l 0 : t , g 1 y 3 a 5 e j 9 i z r s p d h k x ",
"                                                  = l 0 : t , g 1 y 3 a 5 e j 9 i z r s p d h k c v ",
"                                          b n m M N B V C , g 1 y 3 a Z e j 9 i z r s p d h k c v A ",
"                                      S D F G G G G G G H J K y 3 a Z e j 9 i z r s p d h k c v A L ",
"                                  P I G G G G G G G G G G G G U Y Z e j 9 i z r s p d T k c v R L E ",
"                                S W G G G G G G G G G G G G G G Q ! j 9 i z r s p d T k c v R L E ~ ",
"                              ^ / G G G G G G G G G G G G G G G G ( ) i z r s p d T k c v R L _ ~ ` ",
"                            ' ] G G G G G G G G G G G G G G G G G G [ { r s } d T k c v R L _ ~ ` | ",
"                             .G G G G G G G G G G G G G G G G G G G G ..s } d T k c v R L _ ~ ` | X.",
"                          n G G G G G G G G G G G G G G G G G G G G G G o.d T k c v R L _ ~ O.| X.+.",
"                          @.G G G G G G G G G G #.$.G G G G G G G G G G %.T k c v R L _ ~ O.| X.&.*.",
"                        =.-.G G G G G G G G / ;.  :.G G G G G G G G G G >.,.c <.R L _ ~ O.| X.&.*.1.",
"                        2.G G G G G G G G G G 3.  4.G G G G G G G G G G G 5.<.R L _ ~ O.| X.&.*.1.6.",
"                        4.G G G G G G G G G G 7.  4.G G G G G G G G G G G 8.R L _ ~ O.| X.&.*.1.6.9.",
"                        0.G G G G G G G G G G 7.  4.G G G G G G G G G G G q.w._ ~ O.| X.&.*.1.6.9.e.",
"r.t.y.u.i.p.a.s.d.f f.g.h.G G G G G G G G G G 7.  4.G G G G G G G G G G G j.                        ",
"t.y.u.i.p.a.s.d.k.f.g.l l.G G G G G G G G G G 7.  4.G G G G G G G G G G G z.                        ",
"y.u.i.p.a.s.d.k.f.g.x.c.v.G G G G G G G G G b.n.  m.M.G G G G G G G G G G N.                        ",
"u.i.p.a.s.d.k.f.g.x.c.B.V.C.G G G G G G G G G G G G G G G G G G G G G G Z.A.                        ",
"i.p.a.s.d.k.f.g.x.c.B.S.D.F.G G G G G G G G G G G G G G G G G G G G G G G.                          ",
"p.a.s.d.k.f.g.x.c.B.S.D.H.J.G G G G G G G G G G G G G G G G G G G G G G K.                          ",
"a.s.d.k.f.g.x.c.B.S.D.H.L.P.I.G G G G G G G G G G G G G G G G G G G G U.                            ",
"s.d.k.f.g.x.c.B.S.D.H.L.P.Y.T.R.G G G G G G G G G G G G G G G G G G E.W.                            ",
"d.k.f.g.x.c.B.S.Q.H.L.P.!.~.^./.( G G G G G G G G G G G G G G G G (.).                              ",
"k.f.g.x.c.B.S.Q.H.L.P.!.~.^._.`.'.].G G G G G G G G G G G G G G 3.[.                                ",
"f.{.x.c.B.S.Q.H.L.P.!.~.^._.`.}.|. X.XG G G G G G G G G G G G XXoX                                  ",
"{.x.c.OXS.Q.H.+XP.!.~.^._.`.}.|.@X#X$X%X&X*XG G G G G G / 0.=X                                      ",
"x.c.OXS.Q.H.+XP.!.~.^._.`.-X|.@X#X$X;X:X>X,X<X1X2X3X4X5X6X                                          ",
"c.OXS.Q.H.+XP.!.~.^._.`.-X|.@X7X$X;X:X>X8X9X<.0Xw.                                                  ",
"OXS.Q.H.+XP.!.~.^._.`.-X|.@X7X$X;X:X>X8X9XqX0Xw.wX                                                  ",
"S.Q.H.+XP.!.~.^.eX`.-X|.@X7X$X;X:X>X8X9XqX0Xw.wXrX                                                  ",
"Q.H.+XP.!.~.^.eX`.-XtX@X7X$X;X:X>X8X9XqX0Xw.wXrXyX                                                  ",
"H.+XP.!.~.^.eX`.-XtX@X7X$X;X:X>XuX9XqX0XiXwXrXyXpX                                                  ",
"+XP.!.aX^.eX`.-XtX@X7X$X;X:X>XuX9XqX0XiXwXrXyXpXsX                                                  ",
"P.!.aX^.eXdX-XtX@X7X$X;X:X>XuX9XqX0XiXwXfXyXpXsXgX                                                  ",
"!.aX^.eXdX-XtX@X7X$X;XhX>XuX9XqX0XiXwXfXyXpXsXgXjX                                                  ",
"aX^.eXdX-XtX@X7X$X;XhX>XuX9XqX0XiXwXfXyXpXkXgXjXlX                                                  ",
"6 eXdX-XtX@X7X$X;XhX>XuX9XqX0XiXwXfXyXpXkXgXjXlXzX                                                  ",
"eXdX-XtX@X7XxX;XhX>XuX9XqX0XiXwXfXyXpXkXgXjXlXzXcX                                                  ",
"dX-XtX@X7XxX;XhXvXuX9XqXbXiXwXfXyXpXkXgXjXlXzXcXnX                                                  "
};
