/* XPM */
static char *aabcdabc3297474af6f0545175fbc610YdZR6Z1LFwHtBrOz[] = {
/* columns rows colors chars-per-pixel */
"50 50 178 2 ",
"   c #000000",
".  c #0B0707",
"X  c #070508",
"o  c #080708",
"O  c #070808",
"+  c #0C0C0D",
"@  c #180807",
"#  c #190709",
"$  c #190908",
"%  c #120805",
"&  c #100E11",
"*  c #151414",
"=  c #191719",
"-  c #1C1B1C",
";  c #1E1213",
":  c #2E0707",
">  c #350202",
",  c #3B0101",
"<  c #3B0A09",
"1  c #261A1A",
"2  c #1F1D20",
"3  c #201E21",
"4  c #242324",
"5  c #282727",
"6  c #282729",
"7  c #2D2C2D",
"8  c #302F2F",
"9  c #3F2323",
"0  c #312F31",
"q  c #333233",
"w  c #383837",
"e  c #3C3C3C",
"r  c #363638",
"t  c #440000",
"y  c #4C0000",
"u  c #420A0A",
"i  c #540000",
"p  c #5B0000",
"a  c #640000",
"s  c #6C0000",
"d  c #730000",
"f  c #7B0000",
"g  c #710E0D",
"h  c #651919",
"j  c #5E2F2F",
"k  c #432929",
"l  c #642F2F",
"z  c #6B2D2D",
"x  c #712D2D",
"c  c #693636",
"v  c #403E41",
"b  c #464445",
"n  c #4C4A4B",
"m  c #484648",
"M  c #535254",
"N  c #5A5A5A",
"B  c #605D5C",
"V  c #655152",
"C  c #5F5D60",
"Z  c #636263",
"A  c #69696A",
"S  c #706F6F",
"D  c #757475",
"F  c #7B7A7B",
"G  c #840000",
"H  c #8B0000",
"J  c #930000",
"K  c #9C0000",
"L  c #94100D",
"P  c #821010",
"I  c #9E1413",
"U  c #A40000",
"Y  c #AB0000",
"T  c #B40000",
"R  c #BC0000",
"E  c #A1110E",
"W  c #A10F10",
"Q  c #A11011",
"!  c #AA1615",
"~  c #B71514",
"^  c #BB1917",
"/  c #A8221F",
"(  c #9E2928",
")  c #8D3F3F",
"_  c #933F3F",
"`  c #9B3F3F",
"'  c #A32523",
"]  c #B62524",
"[  c #A33F3F",
"{  c #AA3F3F",
"}  c #A43737",
"|  c #C40000",
" . c #CB0000",
".. c #D20000",
"X. c #C01B1D",
"o. c #C91E1C",
"O. c #DC1E1D",
"+. c #C62523",
"@. c #DD2F2D",
"#. c #D83B3A",
"$. c #E42B2B",
"%. c #EE2D2C",
"&. c #F02D2D",
"*. c #EA3332",
"=. c #9C4343",
"-. c #AF5353",
";. c #B05555",
":. c #957E7F",
">. c #B36E6D",
",. c #A97D7D",
"<. c #BD7676",
"1. c #B67979",
"2. c #BB7A7A",
"3. c #A66664",
"4. c #E54341",
"5. c #E85150",
"6. c #F15452",
"7. c #C46363",
"8. c #D36565",
"9. c #C37777",
"0. c #DE7271",
"q. c #E46B6A",
"w. c #E2706E",
"e. c #EC7C7A",
"r. c #F57473",
"t. c #8F7F80",
"y. c #848484",
"u. c #8A8384",
"i. c #8D8C8D",
"p. c #918F90",
"a. c #939293",
"s. c #9C9B9C",
"d. c #99979A",
"f. c #A6989A",
"g. c #9F9DA0",
"h. c #A5A4A5",
"j. c #ACABAC",
"k. c #A8A6A8",
"l. c #B8A8A7",
"z. c #B0AEAF",
"x. c #BAAAAA",
"c. c #BAA5A4",
"v. c #B1AFB0",
"b. c #B3B2B3",
"n. c #BEBCBD",
"m. c #B7B6B8",
"M. c #C98282",
"N. c #CD9B9C",
"B. c #D9999A",
"V. c #C3ADAD",
"C. c #C6B9BA",
"Z. c #D7B2B5",
"A. c #EDABAD",
"S. c #E6BDBC",
"D. c #F6B5B5",
"F. c #F1BFBE",
"G. c #C0BFC0",
"H. c #C5C4C6",
"J. c #C9C7C9",
"K. c #CBCACB",
"L. c #D6C2C4",
"P. c #D1CFD1",
"I. c #D5D4D4",
"U. c #D9D7D9",
"Y. c #DCDCDB",
"T. c #F4C6C4",
"R. c #ECEDEB",
"E. c #E7E6E6",
"W. c #F4E2E1",
"Q. c #FAE5E4",
"!. c #F4F4F4",
"~. c #F4F3F4",
"^. c #F9F7F8",
"/. c #FDFDFD",
"(. c #FFFDFF",
"). c #FEFEFE",
"_. c #FDFDFD",
"`. c #F9F6F7",
/* pixels */
"                                                  .... . . .| | R R R T T Y Y Y U U K K J J J H H G ",
"                                                  .. . . .| | R R R T T Y Y Y U U K K J J J H H G G ",
"                                                   . . .| | R R R T T Y Y Y U U K K J J J H H G G f ",
"                                                   . .| | R R R T T Y Y Y U U K K J J J H H G G f f ",
"                          7 + M   4 X X X + n      .| | R R R T T Y Y Y U U K K J J J H H G G f f d ",
"                          7 X m e * e h.y.Z = e e D | R R R T T Y Y Y U U K K J J J H H G G f f d d ",
"                          7 X 7 7 4 Z /.K.d.= + X 4 h h ] T T Y Y Y U U K K J 1.( H H G G f f d d s ",
"                          7 X !./.I.s.D k.s.q = X X X X ,.M.M.9.Y U U K 9.<.<.- y.H G G f f d d s s ",
"                          7 X !./.I.a.q * q q = X P./.7 X X X 7 U U K 1.O X X X y.G G f f d d s s s ",
"                          7 X !./.I.a.q + 7 C.m o I./.s.y.4 = = N N N V I P g % y.G f f d d s s s a ",
"                          7 X ~./.I.a.q + 7 /.I.u.K./.H.b.q - X - 4 4 9 O.~ E @ y.f f d d s s s a a ",
"                          7 X *.*.O.8.z.q 8 /.I.n.n y.b.z.q - X h.n.n.V.O.~ E $ y.f d d s s s a a p ",
"                          7 X $.%.O.q./.J.a.^.U.n.b q * b m - X h.n.n.V.O.~ E $ y.d d s s s a a p p ",
"                          7 X $.%.O.q./.K.s.n y.n.b q + 4 ^.h.N i.v.b.c.@.] / $ y.d s s s a a p p i ",
"                          7 X 5.6.#.0./.K.s.q = 4 n q + - /.Y.n.b 7 + 8 /././.5 y.s s a a a p p i i ",
"                          7 X ~./.I.a.N D d.q = X P.n.q - /.Y.n.b 7 X 7 /././.6 y.s a a a p p i i y ",
"                          7 X !./.I.p.q & 4 v = X I./.H.f.A.I.n.b 7 X 7 /././.7 y.a a a p p i i y y ",
"                          7 X !./.I.a.q & q ~.i.- I./.H.V.%.+.} u.y.F t.r.8.7.; y.a a p p i i y y y ",
"                          7 X A.D.N.:.q & 0 /.U.b.B.^.H.V.&.o.Q l.n.n.V.%.^ W # y.a p p i i y y y t ",
"                          7 X $.%.O.w.R.y.m /.U.n.4.4.>.c.%.o.I l.n.n.V.%.X.W # y.p p i i y y y t t ",
"                          7 X $.%.O.q./.K.k.d.K.n.4.%.! ' F.7.( l.n.n.V.%.X.Q # y.p i i y y y t t , ",
"                          7 X $.%.O.0./.K.h.M e C #.&.! ' /.Y.n.m w - w Q.W.W.3 y.i i y y y t t , , ",
"                          7 X A.D.B.Z.E.m.g.M q 3 C.e.! ' /.Y.n.b 7 X 7 /././.4 y.i y y y t t , , , ",
"                          7 X ~./.I.I.I.i.Z 7 4 2 I./.x.3.R.Y.n.b 7 X 7 /././.4 y.y y y t t , , , > ",
"                          7 X H.K.r 7 7 3 = + o + G./.H.j.e B S D Z n B T.S.S.1 y.y y t t , , , > > ",
".... . .| | | R R R T T Y x X D F A A A A M X X X 7 s.b.j.q q q E././.Q.O.~ E # y.                  ",
".. . .| | | R R T T T Y Y x X o + -.J J H =.F F F 3 m C i.= 7 q E././.Q.O.~ E # y.                  ",
" . .| | | R R T T T Y Y U z X 2.;.J J H H G G G f F A 6 0 X o = J.I.U.L.~ g u . y.                  ",
" .| | | R R T T T Y Y U U z X { J J H H G G G f f     n - - + + h.j.j.f.L < = - i.                  ",
"| | | R R T T T Y Y U U U z X { J H H G G G f f d           N X X X X o X X q                       ",
"| | R R T T T Y Y U U U K z X { H H G G G f f d d           7 7 7 7 7 7 7 7 -                       ",
"| R R T T T Y Y U U U K K z X [ H G G G f f d d s                                                   ",
"R R T T T Y Y U U U K K J z X [ G G G f f d d s s                                                   ",
"R T T T Y Y U U K K K J J z X [ G G f f d d s s a                                                   ",
"T T T Y Y U U K K K J J H l X ` G f f d d s s a a                                                   ",
"T T Y Y U U K K K J J H H l X ` f f d d s s a a p                                                   ",
"T Y Y U U K K K J J H H G l X ` f d d s s a a p p                                                   ",
"Y Y U U K K K J J H H G G l X _ d d s s a a p p p                                                   ",
"Y U U K K K J J H H G G f l X _ d s s a a p p p i                                                   ",
"U U K K K J J H H H G f f l X _ s s a a p p p i i                                                   ",
"U K K K J J H H G G f f f j X ) s a a p p p i i y                                                   ",
"K K K J J H H G G c < < < 1 X k > : : y i i i y y                                                   ",
"K K J J H H G G f N + = * + + + + + X < i i y y t                                                   ",
"K J J H H G G f f N 7 n.D M q q q 4 = < i y y t t                                                   ",
"J J H H G G f f f N - Z e 7 - - - = + < y y t t t                                                   ",
"J H H G G f f f d N + + + + + + + + + < y t t t ,                                                   ",
"H H G G f f f d d s s a a p p i i i y y t t t , ,                                                   ",
"H G G f f f d d s s a a p p p i i y y t t t , , >                                                   ",
"G G f f f d d s s a a p p p i i y y t t t , , > >                                                   ",
"G f f f d d s s a a p p i i i y y t t t , , > > >                                                   "
};
