/* XPM */
static char *_e90d4e44ac34d67a53207ef08e7e50fMU93oYwsi7rc9HqA[] = {
/* columns rows colors chars-per-pixel */
"50 50 140 2 ",
"   c black",
".  c #D40000",
"X  c #D10000",
"o  c #CE0000",
"O  c #CB0000",
"+  c #C80000",
"@  c #C50000",
"#  c #C20000",
"$  c #BF0000",
"%  c #BC0000",
"&  c #B90000",
"*  c #B60000",
"=  c #B20000",
"-  c #AF0000",
";  c #AC0000",
":  c #A80000",
">  c #A50000",
",  c #A10000",
"<  c #9E0000",
"1  c #9A0000",
"2  c #970000",
"3  c #930000",
"4  c #900000",
"5  c #8C0000",
"6  c #890000",
"7  c #850000",
"8  c #B50000",
"9  c #810000",
"0  c #AB0000",
"q  c #7E0000",
"w  c #7A0000",
"e  c #880000",
"r  c #760000",
"t  c #A40000",
"y  c #960000",
"u  c #730000",
"i  c #7D0000",
"p  c #6F0000",
"a  c #8F0000",
"s  c #720000",
"d  c #6B0000",
"f  c #B80000",
"g  c #9D0000",
"h  c #680000",
"j  c #840000",
"k  c #640000",
"l  c #AE0000",
"z  c #790000",
"x  c #610000",
"c  c #600000",
"v  c #5D0000",
"b  c #A70000",
"n  c #8B0000",
"m  c #5A0000",
"M  c #560000",
"N  c #670000",
"B  c #590000",
"V  c #530000",
"C  c #A00000",
"Z  c #920000",
"A  c #4F0000",
"S  c #520000",
"D  c #4C0000",
"F  c #6E0000",
"G  c #480000",
"H  c #990000",
"J  c #450000",
"K  c #800000",
"L  c #4B0000",
"P  c #420000",
"I  c #750000",
"U  c #410000",
"Y  c #3E0000",
"T  c #6A0000",
"R  c #5C0000",
"E  c #3B0000",
"W  c #870000",
"Q  c #380000",
"!  c #7C0000",
"~  c #350000",
"^  c #710000",
"/  c #630000",
"(  c #550000",
")  c #320000",
"_  c #D30000",
"`  c #D00000",
"'  c #CD0000",
"]  c #CA0000",
"[  c #C70000",
"{  c #C40000",
"}  c #C10000",
"|  c #BE0000",
" . c #BB0000",
".. c #B40000",
"X. c #B10000",
"o. c #AA0000",
"O. c #A30000",
"+. c #9C0000",
"@. c #8E0000",
"#. c #B70000",
"$. c #830000",
"%. c #AD0000",
"&. c #950000",
"*. c #8A0000",
"=. c #9F0000",
"-. c #910000",
";. c #660000",
":. c #780000",
">. c #B00000",
",. c #6D0000",
"<. c #5F0000",
"1. c #A60000",
"2. c #980000",
"3. c #7F0000",
"4. c #580000",
"5. c #740000",
"6. c #5B0000",
"7. c #510000",
"8. c #860000",
"9. c #4E0000",
"0. c #7B0000",
"q. c #4A0000",
"w. c #620000",
"e. c #540000",
"r. c #470000",
"t. c #8D0000",
"y. c #440000",
"u. c #820000",
"i. c #4D0000",
"p. c #400000",
"a. c #690000",
"s. c #3D0000",
"d. c #430000",
"f. c #3A0000",
"g. c #370000",
"h. c #700000",
"j. c #340000",
"k. c #650000",
"l. c #570000",
"z. c #310000",
/* pixels */
"                                                  . X o O + @ # $ % & * = - ; : > , < 1 2 3 4 5 6 7 ",
"                                                  X o O + @ # $ % & 8 = - ; : > , < 1 2 3 4 5 6 7 9 ",
"                                                  o O + @ # $ % & 8 = - 0 : > , < 1 2 3 4 5 6 7 9 q ",
"                                                  O + @ # $ % & 8 = - 0 : > , < 1 2 3 4 5 6 7 9 q w ",
"                                                  + @ # $ % & 8 = - 0 : > , < 1 2 3 4 5 e 7 9 q w r ",
"                                                  @ # $ % & 8 = - 0 : t , < 1 y 3 4 5 e 7 9 q w r u ",
"                                                  # $ % & 8 = - 0 : t , < 1 y 3 4 5 e 7 9 i w r u p ",
"                                                  $ % & 8 = - 0 : t , < 1 y 3 a 5 e 7 9 i w r s p d ",
"                                                  % f 8 = - 0 : t , g 1 y 3 a 5 e 7 9 i w r s p d h ",
"                                                  f 8 = - 0 : t , g 1 y 3 a 5 e j 9 i w r s p d h k ",
"                                                  8 = l 0 : t , g 1 y 3 a 5 e j 9 i z r s p d h k x ",
"                                                  = l 0 : t , g 1 y 3 a 5 e j 9 i z r s p d h k c v ",
"                                                  l 0 b t , g 1 y 3 a n e j 9 i z r s p d h k c v m ",
"                                                  0 b t , g 1 y 3 a n e j 9 i z r s p d h k c v m M ",
"                                                  b t , g 1 y 3 a n e j 9 i z r s p d N k c v B M V ",
"                                                  t C g 1 y Z a n e j 9 i z r s p d N k c v B M V A ",
"                                                  C g 1 y Z a n e j 9 i z r s p d N k c v B M S A D ",
"                                                  g 1 y Z a n e j 9 i z r s F d N k c v B M S A D G ",
"                                                  H y Z a n e j 9 i z r s F d N k c v B M S A D G J ",
"                                                  y Z a n e j K i z r s F d N k c v B M S A L G J P ",
"                                                  Z a n e j K i z I s F d N k c v B M S A L G J U Y ",
"                                                  a n e j K i z I s F T N k c R B M S A L G J U Y E ",
"                                                  n W j K i z I s F T N k c R B M S A L G J U Y E Q ",
"                                                  W j K ! z I s F T N k c R B M S A L G J U Y E Q ~ ",
"                                                  j K ! z I ^ F T N / c R B ( S A L G J U Y E Q ~ ) ",
"_ ` ' ] [ { } |  .f ..X.l o.b O.C +.H y Z @.n W j                                                   ",
"` ' ] [ { } |  .#...X.l o.b O.C +.H y Z @.n W $.K                                                   ",
"' ] [ { } |  .#...X.%.o.b O.C +.H y Z @.n W $.K !                                                   ",
"] [ { } |  .#...X.%.o.b O.C +.H &.Z @.n W $.K ! z                                                   ",
"[ { } |  .#...X.%.o.b O.C +.H &.Z @.*.W $.K ! z I                                                   ",
"{ } |  .#...X.%.o.b O.C +.H &.Z @.*.W $.K ! z I ^                                                   ",
"} |  .#...X.%.o.b O.C +.H &.Z @.*.W $.K ! z I ^ F                                                   ",
"|  .#...X.%.o.b O.C +.H &.Z @.*.W $.K ! z I ^ F T                                                   ",
" .#...X.%.o.b O.=.+.H &.-.@.*.W $.K ! z I ^ F T ;.                                                  ",
"#...X.%.o.b O.=.+.H &.-.@.*.W $.K ! :.I ^ F T ;./                                                   ",
"..>.%.o.b O.=.+.H &.-.@.*.W $.K ! :.I ^ ,.T ;./ <.                                                  ",
">.%.o.1.O.=.+.2.&.-.@.*.W $.K ! :.I ^ ,.T ;./ <.R                                                   ",
"%.o.1.O.=.+.2.&.-.@.*.W $.3.! :.I ^ ,.T ;./ <.R 4.                                                  ",
"o.1.O.=.+.2.&.-.@.*.W $.3.! :.5.^ ,.T ;./ <.R 4.(                                                   ",
"1.O.=.+.2.&.-.@.*.W $.3.! :.5.^ ,.T ;./ <.6.4.( 7.                                                  ",
"O.=.+.2.&.-.@.*.8.$.3.! :.5.^ ,.T ;./ <.6.4.( 7.9.                                                  ",
"=.+.2.&.-.@.*.8.$.3.0.:.5.^ ,.T ;./ <.6.4.( 7.9.q.                                                  ",
"+.2.&.-.@.*.8.$.3.0.:.5.^ ,.T ;.w.<.6.4.e.7.9.q.r.                                                  ",
"2.&.-.t.*.8.$.3.0.:.5.^ ,.T ;.w.<.6.4.e.7.9.q.r.y.                                                  ",
"&.-.t.*.8.u.3.0.:.5.^ ,.T ;.w.<.6.4.e.7.i.q.r.y.p.                                                  ",
"-.t.*.8.u.3.0.:.5.^ ,.a.;.w.<.6.4.e.7.i.q.r.y.p.s.                                                  ",
"t.*.8.u.3.0.:.5.^ ,.a.;.w.<.6.4.e.7.i.q.r.d.p.s.f.                                                  ",
"6 8.u.3.0.:.5.^ ,.a.;.w.<.6.4.e.7.i.q.r.d.p.s.f.g.                                                  ",
"8.u.3.0.:.5.h.,.a.;.w.<.6.4.e.7.i.q.r.d.p.s.f.g.j.                                                  ",
"u.3.0.:.5.h.,.a.k.w.<.6.l.e.7.i.q.r.d.p.s.f.g.j.z.                                                  "
};
