/* XPM */
static char *_1c242da6bbc4937c038ceba2500fee6UmUMGkwUTLXMVZVy[] = {
/* columns rows colors chars-per-pixel */
"50 50 149 2 ",
"   c None",
".  c #020101",
"X  c #090603",
"o  c #0D0905",
"O  c #0D0B09",
"+  c #130C06",
"@  c #120E09",
"#  c #190F08",
"$  c #16110C",
"%  c #1C110A",
"&  c #151413",
"*  c #1A1714",
"=  c #1D1A17",
"-  c #1C1B1B",
";  c #24150B",
":  c #28170C",
">  c #27190F",
",  c #2B1A0E",
"<  c #301C0F",
"1  c #211B11",
"2  c #281F13",
"3  c #201918",
"4  c #321E10",
"5  c #2E2517",
"6  c #362111",
"7  c #3B2313",
"8  c #332A1A",
"9  c #3E2B1A",
"0  c #252424",
"q  c #2E2E2D",
"w  c #333333",
"e  c #3B3836",
"r  c #3D3D3C",
"t  c #412715",
"y  c #452916",
"u  c #492B17",
"i  c #4C2E18",
"p  c #502F19",
"a  c #43321E",
"s  c #4F331C",
"d  c #54321B",
"f  c #5B361D",
"g  c #5E381E",
"h  c #643B1F",
"j  c #413420",
"k  c #473A23",
"l  c #4D3E26",
"z  c #483431",
"x  c #4F3B3B",
"c  c #523C39",
"v  c #663C20",
"b  c #693E21",
"n  c #514026",
"m  c #5C4A2D",
"M  c #6D4224",
"N  c #734526",
"B  c #774827",
"V  c #794827",
"C  c #774828",
"Z  c #7C4B29",
"A  c #604E30",
"S  c #685535",
"D  c #6E5A38",
"F  c #755E3A",
"G  c #434343",
"H  c #4C4C4C",
"J  c #535353",
"K  c #585857",
"L  c #5D5D5D",
"P  c #624949",
"I  c #6A5050",
"U  c #656565",
"Y  c #6C6C6C",
"T  c #767676",
"R  c #777878",
"E  c #7B7B7A",
"W  c #814E2B",
"Q  c #85512C",
"!  c #8A542E",
"~  c #8F5730",
"^  c #8F5B33",
"/  c #915830",
"(  c #A06E3F",
")  c #846B43",
"_  c #9E684B",
"`  c #8C7246",
"'  c #967345",
"]  c #95794B",
"[  c #9C7F4E",
"{  c #86635F",
"}  c #A17B49",
"|  c #8D6B6C",
" . c #9A7575",
".. c #9E804E",
"X. c #B2854F",
"o. c #A38451",
"O. c #AA8A54",
"+. c #B39159",
"@. c #B9965C",
"#. c #BE9A5E",
"$. c #C49A5D",
"%. c #C29D60",
"&. c #C38B7C",
"*. c #CCA564",
"=. c #CFA867",
"-. c #D1A766",
";. c #D0A866",
":. c #D2AB68",
">. c #D4AC69",
",. c #D6AE6A",
"<. c #D6AD6A",
"1. c #D4AC69",
"2. c #D8AF6B",
"3. c #D8AF6B",
"4. c #D9B06C",
"5. c #DBB26D",
"6. c #DAB16D",
"7. c #818181",
"8. c #848484",
"9. c #878788",
"0. c #8D8D8D",
"q. c gray57",
"w. c #979797",
"e. c #949494",
"r. c #9B9B9B",
"t. c gray62",
"y. c #AF8484",
"u. c #A4A4A4",
"i. c #ACACAC",
"p. c #B6B7B7",
"a. c #B7B8B7",
"s. c #BABABA",
"d. c #CB9998",
"f. c #E7ADAB",
"g. c #E9B0B0",
"h. c #F9BBBB",
"j. c #C5C5C5",
"k. c #C3C3C3",
"l. c #C9C9C9",
"z. c #CDCDCD",
"x. c #D0CFCF",
"c. c #D7D7D7",
"v. c gainsboro",
"b. c #E0E0DF",
"n. c #E4E4E4",
"m. c #E9E9E9",
"M. c #F4F4F4",
"N. c gray98",
"B. c #FBFBFB",
/* pixels */
"                        l.7.K L 7.w.                                                                ",
"                      J O : t u 7 % & L                                                             ",
"                  i.* u h b h h v b d X R                                                           ",
"                  - i v t + + @ X : h d X l.                                Y J H K Y               ",
"                7.; v u @ ] *.:.%.l : v 4 J N.x.8.L J J E s.v.N.        E - : u d u : - w.          ",
"                G t v + o.<.<.<.<.4.1 u h o & # , 4 t u t < + * q L c.G + f v h u 7 d f @ j.        ",
"                q i h X *.<.<.*.D 1 % f h f h v v h h h M Z W W N i + . i b t X 2 A m : u J         ",
"                w d h X *.4.) o % i v h h h h h h h M W ! ! ! ! ! ! ! v + + $ ] <.3.4...u @         ",
"                e i v + #.k + d v h h h h h h h h V ! ! ! ! ! ! ! ! ! ! ! t $ +.<.<.<.4.s #         ",
"                L : v 7 o : h h h h h h h h h v Z ! ! ! ! ! ! ! ! ! ! ! ! ! v + [ <.<.O.i *         ",
"                j.X d h i h h h h h h h h h v Z ! ! ! ! ! ! ! ! ! ! ! ! ! ! ! N o o.=.9 t U         ",
"                  R + o f h h h h h h h h h B ! ! ! ! ! ! ! ! ! ! ! ! ! ! ! ! ! b @ a g $           ",
"                  u.X d h h h h h h h h h b W ! ! ! ! ! ! ! ! ! ! ! ! ! ! ! ! ! ! 7 : : E           ",
"                  w t h h h h h h h h h h B ! ! ! ! ! ! ! ! ! ! ! ! ! ! ! ! ! ! ! Q X R             ",
"                u.+ h h h h h h h h h f 7 i Q ! ! ! ! ! ! ! ! ! ! ! ! ! ! ! ! ! ! ! 4 q.            ",
"                r t h h h h h h h h i X . . X N ! ! ! ! ! ! ! ! ! ! ! ! ! ! ! ! ! ! v K             ",
"              b.X h h h h h h h h v + . . . . % ! ! ! ! ! ! ! ! ! ! ! ! Q d i Z ! ! ! @             ",
"              R % v h h h h h h h h X . . . . X ! ! ! ! ! ! ! ! ! ! ! B o . . X v ! ! :             ",
"              G 7 h h h h h h h h v + . . . . : ! ! ! ! ! ! ! ! ! ! ! : . . . . o ! ! 7 i.          ",
"              - d h h h h h h h h h d X . . + Z ! ! ! ! ! ! ! ! ! ! ! + . . . . . W ! d r.          ",
"            n.X h h h h h h h h h h h h v N ! ! ! ! ! ! ! ! ! ! ! ! ! , . . . . + ! ! f q.          ",
"            w.+ h h h h h h h h h h h h M Q ! ! ! ! ! ! ! ! ! ! ! ! ! W # . . o N ! ! M 7.          ",
"            U < v h h h h h h h h h h h h f : } *.*.*.;.-.$.$.X.( ^ ! ! ! N N Q ! ! ! B R           ",
"            0 d h h h h h h h h h h h h t 5 #.<.<.<.<.F $ X 1 ] <.*.' 6 V ! ! ! ! ! ! W U           ",
"          s.+ h h h h h h h h h h h h d @ %.<.<.<.<.@.. . . . X *.<.:.[ % Z ! ! ! ! ! ! r           ",
"          w u h h h h h h h h h h h h , F <.<.<.<.<.*.o . . . @ :.<.<.3.m d ! ! ! ! ! ! $           ",
"        U ; v h h h h h h h h h h h h , S 3.<.<.<.<.<.] o . $ +.<.<.<.<.` t ! ! ! ! ! ! ;           ",
"      i.$ h h h h h h h h h h h h h h d o O.4.4.4.3.%.o.F F *.4.<.<.<.4.j g ! ! ! ! ! ! 6 w.        ",
"      q f h d h h h h h h h h h h h h h d + 5 j 8 $ 3 x I c $ n O.4.*.m # Q ! ! ! ! ! ! v G         ",
"    U % > @ , v h h h h h h h h h h h h h v % d d P h.h.h.h.g.{ + 1 @ t Q ! ! ! ! ! ! ! ! + z.      ",
"  s.J 0.k.= h h h h h h h h h h h h h h h v : v v I h.h.h.h.h.&.f : Q ! ! ! ! ! ! ! ! M V M e       ",
"        J t v f h h h h h h h h h h h h h h , g M z h.h.h.h.h._ , d ! ! ! ! ! B : ! ! 4 0 # X w     ",
"        - g < X h u t h f i h v h h h h h h u u ! @ d.h.h.h.| V o V ! ! N M ! i . M ! + m.          ",
"      v.. o . t 7 X % f X # b ; h h h h h h h % ! v $ y.f. .4 N # ! ! ! v 7 N . 7 i d w             ",
"      m.a.J . X + 7 X + u % + u h h h h h h M 4 d ! N : # u ! : g ! ! ! B % + 6 f + X + L           ",
"        U : h h v h ; 7 v d p h h h h h b V ! Q # f ! / ~ / i : ! ! ! ! ! + : v h f M ! , H         ",
"      8.+ h h h h h h h h h h h h h h M Q ! ! ! W 6 + : , % 7 Q ! ! ! ! ! v h h h W ! ! ! 6 Y       ",
"      * d h h h h h h h h h h h h h N ! ! ! ! ! ! ! W M v C ! ! ! ! ! ! ! s h h h V ! ! ! ! : Y     ",
"    R , v h h h h h h h h h h h h N ! ! ! ! ! ! ! ! ! ! ! ! ! ! ! ! ! ! ! 4 h h h v Q ! ! ! ! $ s.  ",
"  M.O f h h h h h h h h h h h h b Q ! ! ! ! ! ! ! ! ! ! ! ! ! ! ! ! ! ! ~ % f h h h b W ! ! ! N r   ",
"  9.; v h h h h h i % h h h h h B ! ! ! ! ! ! ! ! ! ! ! ! ! ! ! ! ! ! ! ! * r : h h h v h N ! ! : p.",
"  G u h h h h h h 7 : v h h h h Z ! ! ! ! ! ! ! ! ! ! ! ! ! ! ! ! ! ! ! ! 0 N.L + 7 d : ; W ! ! M R ",
"m.X h h h h h h v ; t h h h h v Q ! ! ! ! ! ! ! ! ! ! ! ! ! ! ! ! ! ! ! Z w     t.Y . i ! ! ! ! N G ",
"0.+ h h h h h h v % i h h v v h B V ! ! ! ! ! ! ! ! ! ! ! ! ! ! ! ! ! ! M r       w h ! ! ! ! ! t q.",
"E % v h h h h h h , o 7 4 ; + . X X X 7 ! ! ! ! ! ! ! ! ! ! ! ! ! ! ! ! f U     - g ! ! ! ! ! W O   ",
"U , h h h h h h h h 7 : % : u f h h g % 7 ! ! ! ! ! ! ! ! ! ! ! ! ! ! ! 7 0.  0 f ! ! ! ! ! Z % 0.  ",
"Y 4 h h h h h h h h h v v v h h h h h h X B ! ! ! ! ! ! ! ! ! ! ! ! ! ~ :   R # ! ! ! ! Q M : H     ",
"R 4 h h h h h h h h h h h h h h h h h v ; v ! ! ! ! ! ! ! ! ! ! ! ! ! Q O   R + W Z V M v ; w       ",
"E : v h h h h h h h h h h h h h h h h g o Z ! ! ! ! ! ! ! ! ! ! ! ! ! d J   z.X g v f 4 X K         ",
"i.X h h h h h h h h h h h h h h h h h + i ! ! ! ! ! ! ! ! ! ! ! ! ! ! % 8.    R # % * U             "
};
