/* XPM */
static char *_8c75fc90340476bbd87af13f9acc570LgvAHQHHDokuCjgF[] = {
/* columns rows colors chars-per-pixel */
"50 50 168 2 ",
"   c #6D3B3A",
".  c #733F3C",
"X  c #75403E",
"o  c #7D433E",
"O  c #744240",
"+  c #7B4541",
"@  c #7D4A44",
"#  c #83453F",
"$  c #844641",
"%  c #894741",
"&  c #824D46",
"*  c #8B4A43",
"=  c #834E48",
"-  c #8A4F49",
";  c #954D45",
":  c #994F45",
">  c #865047",
",  c #8C5047",
"<  c #85524A",
"1  c #8B554C",
"2  c #8E594E",
"3  c #915047",
"4  c #9C5146",
"5  c #92564C",
"6  c #9A5349",
"7  c #93594E",
"8  c #9C594D",
"9  c #8E5B51",
"0  c #935D52",
"q  c #9B5F52",
"w  c #A35346",
"e  c #AA5646",
"r  c #A35349",
"t  c #A95649",
"y  c #A75B4D",
"u  c #AE594B",
"i  c #B35A4A",
"p  c #BC5E4B",
"a  c #A65E50",
"s  c #AA5E50",
"d  c #956356",
"f  c #9B6354",
"g  c #976459",
"h  c #9B6659",
"j  c #9D6A5C",
"k  c #B5624F",
"l  c #BB624E",
"z  c #A26555",
"x  c #AB6354",
"c  c #A46856",
"v  c #A36759",
"b  c #AF6658",
"n  c #A36D5D",
"m  c #AC6D5C",
"M  c #B46352",
"N  c #BD6653",
"B  c #B76957",
"V  c #BC6955",
"C  c #B06658",
"Z  c #B36C5C",
"A  c #BA6D5A",
"S  c #A4705F",
"D  c #AE715E",
"F  c #B2725F",
"G  c #BB715E",
"H  c #A26E60",
"J  c #A57261",
"K  c #AB7463",
"L  c #AD7865",
"P  c #AE7B68",
"I  c #B37461",
"U  c #BA7461",
"Y  c #B57A65",
"T  c #BB7B66",
"R  c #B47D69",
"E  c #BA7E68",
"W  c #C05F4B",
"Q  c #C5624D",
"!  c #C8634D",
"~  c #C56651",
"^  c #CA6751",
"/  c #C46A54",
"(  c #CA6B53",
")  c #C36E58",
"_  c #C3735C",
"`  c #CD755D",
"'  c #CC785F",
"]  c #D0795F",
"[  c #C47761",
"{  c #CF7760",
"}  c #C37B65",
"|  c #CE7B62",
" . c #C37F69",
".. c #D07D64",
"X. c #B6826D",
"o. c #BD846D",
"O. c #BD886F",
"+. c #B78570",
"@. c #BC8671",
"#. c #BD8973",
"$. c #C1866E",
"%. c #CC836A",
"&. c #C2896F",
"*. c #D28167",
"=. c #D2846A",
"-. c #D2896F",
";. c #C38770",
":. c #C08C74",
">. c #C08C76",
",. c #C68F75",
"<. c #C78F76",
"1. c #C48B73",
"2. c #CB8D73",
"3. c #C28E78",
"4. c #D48B70",
"5. c #D28D72",
"6. c #D58C72",
"7. c #D38C72",
"8. c #C79075",
"9. c #C79076",
"0. c #C79177",
"q. c #C69077",
"w. c #C89177",
"e. c #CD9077",
"r. c #CA9177",
"t. c #C7947B",
"y. c #C79379",
"u. c #CB9178",
"i. c #CA9278",
"p. c #CF957B",
"a. c #CC967A",
"s. c #CE977C",
"d. c #CB957A",
"f. c #CE987D",
"g. c #D69377",
"h. c #D89377",
"j. c #D39579",
"k. c #D8947A",
"l. c #D5987C",
"z. c #D6997D",
"x. c #D29A7E",
"c. c #D99C7D",
"v. c #CF9B80",
"b. c #D29B80",
"n. c #D19C80",
"m. c #D39D81",
"M. c #D59E82",
"N. c #D49F82",
"B. c #D49F83",
"V. c #D39D81",
"C. c #DA9E81",
"Z. c #DA9E81",
"A. c #D5A084",
"S. c #D6A184",
"D. c #D7A284",
"F. c #D7A186",
"G. c #D6A184",
"H. c #D9A485",
"J. c #DAA485",
"K. c #DAA486",
"L. c #DAA589",
"P. c #DBA789",
"I. c #DBA689",
"U. c #DCA889",
"Y. c #DEA989",
"T. c #DDA88A",
"R. c #DEA88A",
"E. c #DDA88A",
/* pixels */
"k P l.^ ( ` ^ ^ p S s.;.;.&.&.&.&.o.R m S D.J.T.J.;.$.0 P.a.<.D.P.b.$.o.Y Y D j C.{ *.| ^ ^ ` k.6.^ ",
"r 1 V ! ` *.! p w < Y o.o.o.o.X.Y I F F 7 #.<.s.1.T I 1 D.&.o.o.<.X.Y F F I m j | ( 4.! ! ! ! ( 4.! ",
"6   p ! ! u t r ; X L ;.o.Y I F F F Y i.j :.M.o.Y F F 1 M.o.o.o.w.Y F F F I D j l.` N t t t u u s t ",
";   e u : : : : * d X.K c c c c c c R h + :.X.D c c c < t.h K D v v v v v R #.h m : : : : : i i ; ; ",
"4 * - n n n n n j 0 0 2 2 j H J H J J n @.M.K * % H S L T.#.n d j j 0 - $ . X < &     9 n n H H H H ",
"_ p x o.8.8.8.n.8.o.Y F F q A Z _ ` ` ` ` 5.U p * e.Z Z Z Z Z 8 @.X.n.a.i.:.:.:.@.n 1 8 Z _ ` ` ` ` ",
"~ i $ f R <.$.&.o.Y I F F @ $ r M / Q ! ! ~ p i o b C r r r y * @.D.T.T.T.T.T.D.o.I f . 4 i N ~ ! ! ",
"u r X @ R w.o.T F F F F F + . $ 8 x u i i u r r o r r r r r y * #.T.T.P.a.y.;.E F F f   # ; y s i i ",
"6 ; o f K K z f z z z z 6 X o * ; ; ; ; ; ; ; ; o ; ; ; ; $ * $ +.y.q.X.K K n z z z f + $ ; ; ; ; ; ",
"j j h h h h h h h h h h h h h h h d 7 h h h h h h h h h h 0 2 1 L 1 < j j j j j j j R R h h h h h h ",
"T.n.a.:.n } *.*.*.*.*.*.*.*.T J y.y.$.a.T.x.s.O.j c.2.-.e.[ [ %.V y < y.s.a.P.T.x.a.a.2.o.j J i.T.T.",
"S.$.o.I 1 $.5./ ( h.` Q i r r $ X.;.o.$.;.o.o.D @ g.Q Q ~ Q Q ~ ! p ; X.;.o.<.x.o.o.I F D v < R R.T.",
"1.F F F 7 $.` ( ! W p r r r r $ S o.o.o.o.T I F & g.` l i r 4 w p r % J &.o.;.<.I F I F F F 1 m $.i.",
"I D D D 7 M ( ~ u r r r r r r o n o.R I I x x Y & e.x r r r r r r ; . + I o.Y Y K I I m a x < c F F ",
"0 & 9 0 0 m A Z d 2 1 1 d d d d d 0 2 1 0 1 < 0 d Y & & & & & & - 9 v j.1 & & & & > 0 & o o o o - 0 ",
"M.G | =.R.D.T j.=.' _ Z %...6.T.4...` _ } b f :.y.2.a.a.a.;.T I q K h..._ a.w./ V U K.j.1.1.$.T 2.J ",
"l.~ ! ^ | ` u ) ! ! i y A ! ^ | ^ ! Q i t 4 & v.n.T.R.a.i.;.Y F f 0 *.! ( %.' ! Q B x.M.J.J.S.,.;.= ",
"l.Q ! ! ! Q p ! ! i r y _ ! ! ! ! p r r y 6 & T.T.S.y.$.o.T F F m 3 ^ ! ! Q p i r x a.;.1.;.$.o.I @ ",
"j.k Q p i i i i t r w 5 m p Q i u r r r r ; & S.w.X.X.X.X.E F D 7 * Q i i r r r r s 1.Y X.I D I D @ ",
"i.5 7 5 o & 1 & o X & 0 R 5 , o - 1 1 * - 1 9 #.0 0 0 1 & 1 2 0 < 1 7 5 1 1 1 1 1 f @.0 0 0 1 1 1 @ ",
"h.j.%.I * L <.#.J j X.y.i.1.L % n y.D.| %.D.K.P.5.E E 0 < o.o.1.f.2.1.1.1.R s.%.%.-.l.%.%.E m n ;.R ",
"^ N t r * #.;.,.w.w.;.X.I I I a % V %.` ( ` ` _ u r r * & Y Y o.T I F F Z 1 V ! ! ! ( W u r : - x.o.",
"Q r r r * #.;.o.o.o.T I F F F a $ p _ / ! Q i r r r r : @ F I Y F F F F x 1 i ! ^ ! p t r r : - b.o.",
"y r r r * K $.o.X.Y F F F F F 8 # p Q ) i r r r r r r * @ F F F F F F F F 1 . A 2.V r r r r : & i.o.",
"$ + $ $ o P 9 1 & & & & & & & X h 3 % $ o o o o o o o @ K & & & & & - - & + n o $ o o o o o o @ R 1 ",
"X.J n.n.n.i.1 1 :.f.f.& $.s.& = #.n.f.y.g #.n.n.n.O.O.O.o.X.F 7   d n.n.u t 2.j.%.<.K J j D.J.P.P.x.",
"n & R o.o.o.o.T F F F < <.o.o.o.X.Y F z . #.,.O.o.o.o.o.T I F q o G o.o.Q ! ! ! p 2.<.D.R.T.T.T.n.T ",
"z X 1 o.o.o.Y I F F F = o.o.E I I F F z . #.,.o.o.o.o.I F F F q . l / M t p Q r r 2.;.1.M.D.D.D.<.F ",
"8 j $.o.o.I Y Y F F F & o.I F F F F F z   K Y L L L n c z c c 1 X c m a t p t r 4 <.;.o.I I I I F F ",
"@.3.x.a.w.,.,.,.,.,.,.K E R T T T o.,.o.S J J J J J J J J J J J J T  . .T T T  .K s.x.w.<.,.,.<.,.,.",
"l.1.' [ ` _ Y X.T o.o.;.E I Y i.j.2.C.k.` g.C.o.2 I.C.I.C.c.2.&.&.2.Y @.h f h ;.<.<.<.;.;.R <.C.-.e.",
"( Q Q _ ~ p [ i.I F F I I F f O.| ^ ) V y ~ ^ Q # k.^ k.^ ^ ~ Q Q ~ 4 n X.;.o.,.o.o.T I I 7 a %._ ) ",
"l i u i A y U $.F F F F F I f X.| _ i t : t p t o g.! 5.! ! ! Q i u * < o.o.&.,.T Y F F F 5 4 p _ M ",
"6 ; ; ; 6 ; m R z z z z z z 1 X.o.7 r r r r r r o e.i s t t t t r r % 1 K K K n h h z z z > 6 6 r ; ",
"n j j j j j X.X.j j j j j j H t.1.T T T T T T T K b.T T T T T T T T K j X $ 1 1 1 1 1 0 0 h @.J H H ",
";.X.R.T.T.f.y.<.;.f.X.x.*.*.2...=.M.i.J @.a.1.1.1.,.a.f.T.R.;.j [ 4.T.n.u p / i.G M n b.s.,.a.<.R ,.",
"n h J.T.J.,.E F F I 1 e.! ! Q W Q ^ / e n o.F I F F T o.;.x.I . e Q / ~ Q Q t s r 4 1 ;.;.o.o.o.Y I ",
"c h J.P.w.T F I F F 1 [ W i u r r Q M 4 n o.F F F F F I E i.K . ; r r r r r r r r 4 1 E o.o.o.T F F ",
"h @ X.@.Y D m m m q X T ; r r r r r r ; n E m m m m m m m I n . ; r r r r r r r r : 1 X.X.Y Y ,.m m ",
"h #.H d d d d d d d d I U U U U I h d d X.K d d f f d d d d d d m I I I I I I I I j d d d d d d d d ",
"y.i.i.O.X.=.[ G | | | 1.G 1.G m 1.w.i.i.i.w.&.a.K | ..J.T.2.%.2.[ | Z X.i.i.;.i.i.i.i.w.$.s.n.K T.T.",
"&.o.o.X.j y t r Q ! ! / p / w K 1.w.o.;.<.Y F Y < ; u ` ` / ~ / ! ! : j o.o.w.o.o.o.o.T F v g #.T.T.",
"&.o.o.o.f ; r r i i p p p p ; n &.;.o.X.I F F F & o r p i i p p p p * h o.o.;.o.o.o.T F F 1 @ ;.x.x.",
"o.o.b b d 8 r 4 4 r r r r r * 7 Y R Y ;.E m x x @ o 4 4 r r r r r r $ & R X.X.X.X.D m m x - + c m Z ",
"I Z Z I 9 n 0 1 0 b C C C b 1 1 0 d 0 h d 0 2 0 1 & & - x b b b b x 1 P h d d d d 0 0 0 2 1 q q 0 b ",
"%.:.K.=.=.=.=.=. .#.n.s.s.s.a.a.a.y.8.o.#.K.f.n.P.o.Y q T n.s.n.P.D.a.f.,.,.;.O.J.6.=.=.=.=.4.D.k.=.",
"u n  .! ` =.^ Q e d @.o.o.o.o.o.o.Y I m q <.,.;.<.X.I @ T s.@.;.<.;.T I F F m h =.( *.! ! ! ! ] -.! ",
"6 + l ! ^ ( ! i : O < X.$.o.E I I F F I q #.<.o.o.I F @ X.s.@.o.$.Y I F F F m h | ( =.Q ! ! ! / %.! ",
"6   p ! p r r r ; = @.&.T I F F F F o.2.h #.<.o.I F F & o.8.o.o.1.I F F F E o.h u.V i r r r u u r r ",
"+   # # o o o o X + 1 < & & & @ @ @ < & h t.d < & & & = :.< < < & & & & & < 9 h f o o o o o # # o + "
};
